<svg xmlns="http://www.w3.org/2000/svg" viewBox="0 0 338.64 157.68"><title>Jilt Logo_White</title><rect x="193.11" width="33.07" height="153.54" style="fill:#fff"/><path d="M208.56,171.16v45.13l33.08-33.15v-12Zm0,153.54h33.08V216.08l-33.08,33.14Z" transform="translate(-80.68 -171.16)" style="fill:#fff"/><path d="M142.42,171.16V275.67q0,11-5.63,16.8t-15.27,5.75A29.51,29.51,0,0,1,102.91,292L80.68,314.29q16.78,14.54,43.37,14.55a66.81,66.81,0,0,0,20.09-3A48.22,48.22,0,0,0,161,316.64a44.29,44.29,0,0,0,11.72-15.88q4.35-9.67,4.36-22.79V171.16Z" transform="translate(-80.68 -171.16)" style="fill:#fff"/><path d="M401.69,298.93c-.67.35-1.35.7-2,1a20.38,20.38,0,0,1-8.73,1.73q-6.66,0-9.76-4.26t-3.1-12.09V232.62h27.79v-26H378.06V171.16H345v35.45H328v26h17v50.87a76.05,76.05,0,0,0,2.07,18.42A35.28,35.28,0,0,0,354,316.06a32.37,32.37,0,0,0,12.63,9.21q7.8,3.35,19.29,3.34,18.06,0,33.45-12Z" transform="translate(-80.68 -171.16)" style="fill:#fff"/></svg>