<?xml version="1.0" encoding="utf-8"?>
<!-- Generator: Adobe Illustrator 19.2.0, SVG Export Plug-In . SVG Version: 6.00 Build 0)  -->
<svg version="1.1" id="Artwork" xmlns="http://www.w3.org/2000/svg" xmlns:xlink="http://www.w3.org/1999/xlink" x="0px" y="0px"
	 viewBox="0 0 600 250" style="enable-background:new 0 0 600 250;" xml:space="preserve">
<style type="text/css">
	.st0{fill:#ECAE23;}
	.st1{fill:#FFFFFF;}
</style>
<title>jilt-logo-landscape</title>
<path class="st0" d="M89.5,120.2c-10.8-10.7-10.9-28.2-0.2-39c5.1-5.1,12-8.1,19.2-8.2l23.7-23.7c-21.4-10.9-47.4-6.8-64.4,10.2l0,0
	c-21.6,21.6-21.7,56.6-0.1,78.2c0,0,0.1,0.1,0.1,0.1l78.3,78.2l19.6-19.6L89.5,120.2z"/>
<path class="st0" d="M223.6,59.5L223.6,59.5C202,37.9,167,37.8,145.4,59.4c0,0-0.1,0.1-0.1,0.1l0,0L127.8,77l19.7,19.7l17.3-17.3
	c12.1-9.3,29.5-7.1,38.9,5c8.3,10.7,7.6,25.9-1.7,35.8L159.2,163l19.6,19.6l44.8-44.8C245.2,116.2,245.3,81.2,223.6,59.5
	C223.7,59.6,223.6,59.5,223.6,59.5z"/>
<path class="st1" d="M420.3,68.5h27.9v129.3h-27.9V68.5z"/>
<path class="st1" d="M365.3,68.5v38l27.9-27.9V68.5H365.3z M365.3,197.8h27.9v-91.5l-27.9,27.9V197.8z"/>
<path class="st1" d="M309.5,68.5v88c0,6.2-1.6,10.9-4.7,14.2s-7.4,4.9-12.9,4.8c-4,0-7.9-0.9-11.5-2.6c-1.5-0.7-2.9-1.6-4.2-2.6
	L257.3,189c9.5,8.1,21.7,12.2,36.6,12.2c5.8,0,11.5-0.8,17-2.5c5.2-1.6,10-4.3,14.2-7.8c4.3-3.7,7.7-8.2,9.9-13.4
	c2.6-6.1,3.8-12.6,3.7-19.2V68.5H309.5z"/>
<path class="st1" d="M528.3,176.1l-1.7,0.9c-2.3,1-4.9,1.6-7.4,1.5c-3.7,0-6.5-1.2-8.2-3.6c-1.7-2.4-2.6-5.8-2.6-10.2v-44.5h23.5
	V98.3h-23.6V68.5h-27.9v29.8h-14.3v21.9h14.3V163c-0.1,5.2,0.5,10.4,1.7,15.5c1,4.4,3,8.4,5.8,11.9c2.9,3.4,6.5,6.1,10.7,7.8
	c4.4,1.9,9.8,2.8,16.3,2.8c10.1,0,19.5-3.4,28.2-10.1L528.3,176.1z"/>
</svg>
